<?xml version="1.0" encoding="UTF-8"?>
<svg width="400" height="400" viewBox="0 0 400 400" xmlns="http://www.w3.org/2000/svg">
  <!-- Background glow effect -->
  <defs>
    <filter id="glow" x="-50%" y="-50%" width="200%" height="200%">
      <feGaussianBlur stdDeviation="10" result="blur" />
      <feComposite in="SourceGraphic" in2="blur" operator="over" />
    </filter>
    
    <linearGradient id="cyberpunkGradient" x1="0%" y1="0%" x2="100%" y2="100%">
      <stop offset="0%" stop-color="#00FFFF" />
      <stop offset="50%" stop-color="#FF00FF" />
      <stop offset="100%" stop-color="#0088FF" />
    </linearGradient>
    
    <linearGradient id="dropGradient" x1="0%" y1="0%" x2="100%" y2="100%">
      <stop offset="0%" stop-color="#7B00FF" />
      <stop offset="100%" stop-color="#00BFFF" />
    </linearGradient>
    
    <radialGradient id="innerGlow" cx="50%" cy="40%" r="60%">
      <stop offset="0%" stop-color="#8A2BE2" stop-opacity="0.9" />
      <stop offset="100%" stop-color="#00FFFF" stop-opacity="0.3" />
    </radialGradient>
  </defs>
  
  <!-- Main waterdrop shape -->
  <g transform="translate(200, 180)">
    <!-- Outer glow -->
    <path d="M0,-150 C80,-150 150,-80 150,20 C150,120 80,180 0,180 C-80,180 -150,120 -150,20 C-150,-80 -80,-150 0,-150 Z 
              M0,-110 C-60,-110 -110,-60 -110,20 C-110,100 -60,140 0,140 C60,140 110,100 110,20 C110,-60 60,-110 0,-110 Z" 
          fill="url(#cyberpunkGradient)" filter="url(#glow)" opacity="0.7" />
    
    <!-- Main drop shape -->
    <path d="M0,-120 C70,-120 120,-70 120,20 C120,110 70,150 0,150 C-70,150 -120,110 -120,20 C-120,-70 -70,-120 0,-120" 
          fill="url(#dropGradient)" />
          
    <!-- Inner glow -->
    <path d="M0,-120 C70,-120 120,-70 120,20 C120,110 70,150 0,150 C-70,150 -120,110 -120,20 C-120,-70 -70,-120 0,-120" 
          fill="url(#innerGlow)" opacity="0.5" />
          
    <!-- Digital circuit patterns -->
    <path d="M-80,-40 L-40,-40 L-40,-20 L-20,-20 L-20,0 L20,0 L20,40 L40,40 L40,80" 
          stroke="#00FFFF" stroke-width="3" fill="none" stroke-linecap="round" />
    <path d="M80,-20 L40,-20 L40,0 L0,0 L0,20 L-40,20 L-40,60" 
          stroke="#FF00FF" stroke-width="3" fill="none" stroke-linecap="round" />
          
    <!-- Sound wave elements -->
    <path d="M-90,60 Q-70,20 -50,60 Q-30,100 -10,60 Q10,20 30,60 Q50,100 70,60" 
          stroke="#00FFFF" stroke-width="3" fill="none" stroke-linecap="round" />
          
    <!-- Digital dots -->
    <circle cx="-80" cy="-40" r="5" fill="#00FFFF" />
    <circle cx="-40" cy="-40" r="5" fill="#00FFFF" />
    <circle cx="-20" cy="-20" r="5" fill="#00FFFF" />
    <circle cx="20" cy="0" r="5" fill="#00FFFF" />
    <circle cx="40" cy="40" r="5" fill="#00FFFF" />
    <circle cx="40" cy="80" r="5" fill="#00FFFF" />
    
    <circle cx="80" cy="-20" r="5" fill="#FF00FF" />
    <circle cx="40" cy="-20" r="5" fill="#FF00FF" />
    <circle cx="0" cy="0" r="5" fill="#FF00FF" />
    <circle cx="-40" cy="20" r="5" fill="#FF00FF" />
    <circle cx="-40" cy="60" r="5" fill="#FF00FF" />
  </g>
  
  <!-- Optional: Lock symbol for protection -->
  <g transform="translate(200, 200) scale(0.7)">
    <rect x="-30" y="-10" width="60" height="45" rx="10" ry="10" fill="none" stroke="#00FFFF" stroke-width="5" />
    <path d="M-15,-10 L-15,-30 C-15,-44 15,-44 15,-30 L15,-10" 
          fill="none" stroke="#00FFFF" stroke-width="5" stroke-linecap="round" />
  </g>
</svg> 