<?xml version="1.0" encoding="UTF-8"?>
<svg width="400" height="400" viewBox="0 0 400 400" xmlns="http://www.w3.org/2000/svg">
  <defs>
    <linearGradient id="dropBlueGradient" x1="0%" y1="0%" x2="100%" y2="100%">
      <stop offset="0%" stop-color="#FFFFFF" />
      <stop offset="30%" stop-color="#A0C8FF" />
      <stop offset="70%" stop-color="#4080D0" />
      <stop offset="100%" stop-color="#1040A0" />
    </linearGradient>
  </defs>
  
  <!-- Pixel grid for the drop -->
  <g transform="translate(200, 180)">
    <!-- Row 1 -->
    <rect x="-4" y="-120" width="8" height="8" fill="#4080D0" />
    
    <!-- Row 2 -->
    <rect x="-12" y="-112" width="8" height="8" fill="#4080D0" />
    <rect x="-4" y="-112" width="8" height="8" fill="#A0C8FF" />
    <rect x="4" y="-112" width="8" height="8" fill="#4080D0" />
    
    <!-- Row 3 -->
    <rect x="-20" y="-104" width="8" height="8" fill="#1040A0" />
    <rect x="-12" y="-104" width="8" height="8" fill="#4080D0" />
    <rect x="-4" y="-104" width="8" height="8" fill="#FFFFFF" />
    <rect x="4" y="-104" width="8" height="8" fill="#A0C8FF" />
    <rect x="12" y="-104" width="8" height="8" fill="#1040A0" />
    
    <!-- Row 4 -->
    <rect x="-28" y="-96" width="8" height="8" fill="#1040A0" />
    <rect x="-20" y="-96" width="8" height="8" fill="#4080D0" />
    <rect x="-12" y="-96" width="8" height="8" fill="#A0C8FF" />
    <rect x="-4" y="-96" width="8" height="8" fill="#A0C8FF" />
    <rect x="4" y="-96" width="8" height="8" fill="#4080D0" />
    <rect x="12" y="-96" width="8" height="8" fill="#4080D0" />
    <rect x="20" y="-96" width="8" height="8" fill="#1040A0" />
    
    <!-- Row 5 -->
    <rect x="-28" y="-88" width="8" height="8" fill="#1040A0" />
    <rect x="-20" y="-88" width="8" height="8" fill="#4080D0" />
    <rect x="-12" y="-88" width="8" height="8" fill="#A0C8FF" />
    <rect x="-4" y="-88" width="8" height="8" fill="#FFFFFF" />
    <rect x="4" y="-88" width="8" height="8" fill="#A0C8FF" />
    <rect x="12" y="-88" width="8" height="8" fill="#4080D0" />
    <rect x="20" y="-88" width="8" height="8" fill="#1040A0" />
    
    <!-- Row 6 -->
    <rect x="-28" y="-80" width="8" height="8" fill="#1040A0" />
    <rect x="-20" y="-80" width="8" height="8" fill="#1040A0" />
    <rect x="-12" y="-80" width="8" height="8" fill="#4080D0" />
    <rect x="-4" y="-80" width="8" height="8" fill="#A0C8FF" />
    <rect x="4" y="-80" width="8" height="8" fill="#4080D0" />
    <rect x="12" y="-80" width="8" height="8" fill="#1040A0" />
    <rect x="20" y="-80" width="8" height="8" fill="#1040A0" />
    
    <!-- Row 7 -->
    <rect x="-36" y="-72" width="8" height="8" fill="#1040A0" />
    <rect x="-28" y="-72" width="8" height="8" fill="#1040A0" />
    <rect x="-20" y="-72" width="8" height="8" fill="#4080D0" />
    <rect x="-12" y="-72" width="8" height="8" fill="#4080D0" />
    <rect x="-4" y="-72" width="8" height="8" fill="#A0C8FF" />
    <rect x="4" y="-72" width="8" height="8" fill="#4080D0" />
    <rect x="12" y="-72" width="8" height="8" fill="#4080D0" />
    <rect x="20" y="-72" width="8" height="8" fill="#1040A0" />
    <rect x="28" y="-72" width="8" height="8" fill="#1040A0" />
    
    <!-- Row 8 -->
    <rect x="-36" y="-64" width="8" height="8" fill="#1040A0" />
    <rect x="-28" y="-64" width="8" height="8" fill="#4080D0" />
    <rect x="-20" y="-64" width="8" height="8" fill="#4080D0" />
    <rect x="-12" y="-64" width="8" height="8" fill="#A0C8FF" />
    <rect x="-4" y="-64" width="8" height="8" fill="#A0C8FF" />
    <rect x="4" y="-64" width="8" height="8" fill="#A0C8FF" />
    <rect x="12" y="-64" width="8" height="8" fill="#4080D0" />
    <rect x="20" y="-64" width="8" height="8" fill="#4080D0" />
    <rect x="28" y="-64" width="8" height="8" fill="#1040A0" />
    
    <!-- Row 9 -->
    <rect x="-36" y="-56" width="8" height="8" fill="#1040A0" />
    <rect x="-28" y="-56" width="8" height="8" fill="#1040A0" />
    <rect x="-20" y="-56" width="8" height="8" fill="#4080D0" />
    <rect x="-12" y="-56" width="8" height="8" fill="#4080D0" />
    <rect x="-4" y="-56" width="8" height="8" fill="#A0C8FF" />
    <rect x="4" y="-56" width="8" height="8" fill="#4080D0" />
    <rect x="12" y="-56" width="8" height="8" fill="#4080D0" />
    <rect x="20" y="-56" width="8" height="8" fill="#1040A0" />
    <rect x="28" y="-56" width="8" height="8" fill="#1040A0" />
    
    <!-- Row 10 -->
    <rect x="-36" y="-48" width="8" height="8" fill="#1040A0" />
    <rect x="-28" y="-48" width="8" height="8" fill="#1040A0" />
    <rect x="-20" y="-48" width="8" height="8" fill="#4080D0" />
    <rect x="-12" y="-48" width="8" height="8" fill="#4080D0" />
    <rect x="-4" y="-48" width="8" height="8" fill="#4080D0" />
    <rect x="4" y="-48" width="8" height="8" fill="#4080D0" />
    <rect x="12" y="-48" width="8" height="8" fill="#1040A0" />
    <rect x="20" y="-48" width="8" height="8" fill="#1040A0" />
    <rect x="28" y="-48" width="8" height="8" fill="#1040A0" />
    
    <!-- Row 11 -->
    <rect x="-28" y="-40" width="8" height="8" fill="#1040A0" />
    <rect x="-20" y="-40" width="8" height="8" fill="#1040A0" />
    <rect x="-12" y="-40" width="8" height="8" fill="#4080D0" />
    <rect x="-4" y="-40" width="8" height="8" fill="#4080D0" />
    <rect x="4" y="-40" width="8" height="8" fill="#4080D0" />
    <rect x="12" y="-40" width="8" height="8" fill="#1040A0" />
    <rect x="20" y="-40" width="8" height="8" fill="#1040A0" />
    
    <!-- Row 12 -->
    <rect x="-20" y="-32" width="8" height="8" fill="#1040A0" />
    <rect x="-12" y="-32" width="8" height="8" fill="#1040A0" />
    <rect x="-4" y="-32" width="8" height="8" fill="#4080D0" />
    <rect x="4" y="-32" width="8" height="8" fill="#1040A0" />
    <rect x="12" y="-32" width="8" height="8" fill="#1040A0" />
    
    <!-- Row 13 -->
    <rect x="-12" y="-24" width="8" height="8" fill="#1040A0" />
    <rect x="-4" y="-24" width="8" height="8" fill="#1040A0" />
    <rect x="4" y="-24" width="8" height="8" fill="#1040A0" />
    
    <!-- Water splash below -->
    <!-- Row 1 -->
    <rect x="-52" y="0" width="8" height="8" fill="#1040A0" />
    <rect x="-36" y="0" width="8" height="8" fill="#1040A0" />
    <rect x="-28" y="0" width="8" height="8" fill="#4080D0" />
    <rect x="-20" y="0" width="8" height="8" fill="#4080D0" />
    <rect x="-12" y="0" width="8" height="8" fill="#A0C8FF" />
    <rect x="-4" y="0" width="8" height="8" fill="#A0C8FF" />
    <rect x="4" y="0" width="8" height="8" fill="#A0C8FF" />
    <rect x="12" y="0" width="8" height="8" fill="#4080D0" />
    <rect x="20" y="0" width="8" height="8" fill="#4080D0" />
    <rect x="28" y="0" width="8" height="8" fill="#1040A0" />
    <rect x="44" y="0" width="8" height="8" fill="#1040A0" />
    
    <!-- Row 2 -->
    <rect x="-44" y="8" width="8" height="8" fill="#1040A0" />
    <rect x="-28" y="8" width="8" height="8" fill="#1040A0" />
    <rect x="-20" y="8" width="8" height="8" fill="#4080D0" />
    <rect x="-12" y="8" width="8" height="8" fill="#4080D0" />
    <rect x="-4" y="8" width="8" height="8" fill="#4080D0" />
    <rect x="4" y="8" width="8" height="8" fill="#4080D0" />
    <rect x="12" y="8" width="8" height="8" fill="#1040A0" />
    <rect x="20" y="8" width="8" height="8" fill="#1040A0" />
    <rect x="36" y="8" width="8" height="8" fill="#1040A0" />
    
    <!-- Row 3 -->
    <rect x="-44" y="16" width="8" height="8" fill="#4080D0" />
    <rect x="-36" y="16" width="8" height="8" fill="#1040A0" />
    <rect x="-12" y="16" width="8" height="8" fill="#1040A0" />
    <rect x="-4" y="16" width="8" height="8" fill="#1040A0" />
    <rect x="4" y="16" width="8" height="8" fill="#1040A0" />
    <rect x="28" y="16" width="8" height="8" fill="#1040A0" />
    <rect x="36" y="16" width="8" height="8" fill="#4080D0" />
  </g>
</svg> 